<svg width="210" height="34" viewBox="0 0 210 34" fill="none" xmlns="http://www.w3.org/2000/svg">
<g clip-path="url(#clip0)">
<path d="M59.9526 25.0866C59.7556 24.7698 59.4892 24.6114 59.15 24.6114C58.734 24.6114 58.3802 24.7956 58.0956 25.1639C57.0011 26.5304 55.6585 27.6169 54.0715 28.4162C52.4809 29.2192 51.0763 29.6206 49.8504 29.6206C48.2342 29.6206 47.4279 28.965 47.4279 27.6501C47.4279 26.4936 47.9424 25.3296 48.9712 24.1584C50 22.9871 51.7767 21.418 54.305 19.4438C55.2426 18.7072 55.7096 17.7348 55.7096 16.5267C55.7096 16 55.5783 15.6059 55.3192 15.3444C55.0602 15.0829 54.7063 14.9503 54.2649 14.9503C53.9256 14.9503 53.3783 15.1087 52.6231 15.4254C52.5173 15.4512 52.2911 15.5322 51.9409 15.6611C51.5907 15.7937 51.193 15.9116 50.7479 16.0147C50.3065 16.1215 49.8614 16.1731 49.4199 16.1731C48.5079 16.1731 47.8366 16.0221 47.4097 15.7201C46.9792 15.418 46.6217 14.9503 46.3371 14.3204C45.8701 13.2413 45.0493 12.7035 43.8745 12.7035C42.2328 12.7035 41.1638 13.5838 40.6713 15.3481C40.124 17.3186 39.595 18.9061 39.0879 20.0994C38.5808 21.2965 38.0409 22.3794 37.4681 23.3554C36.9026 24.3315 36.0562 25.4659 34.958 26.7403C34.4144 27.2891 33.9146 27.7274 33.4659 28.0479C32.645 28.6262 31.8059 28.9171 30.9449 28.9171C30.0328 28.9171 29.3251 28.6409 28.8143 28.0884C28.3072 27.5359 28.0518 26.7072 28.0518 25.6022C28.0518 24.6556 28.1831 23.5249 28.4422 22.2099L30.8245 10.9282C31.266 8.98343 31.5396 7.09024 31.6454 5.24862L35.5928 5.76059C35.7497 5.78637 35.9686 5.80111 36.2568 5.80111C37.0376 5.80111 37.625 5.59853 38.0153 5.18969C38.4057 4.78085 38.6027 4.18416 38.6027 3.39595C38.6027 2.86925 38.4276 2.40516 38.0773 1.99632C37.7271 1.58748 37.147 1.3186 36.3371 1.186C31.4374 0.394107 26.4356 0 21.3316 0C16.4101 0 12.3896 0.316759 9.27764 0.946593C6.16563 1.57643 3.84166 2.5709 2.30208 3.92634C0.769792 5.27808 0 7.07551 0 9.30755C0 10.361 0.167822 11.3002 0.507114 12.1289C0.846406 12.9576 1.27326 13.5948 1.79497 14.0405C2.08318 14.302 2.44436 14.4346 2.88946 14.4346C3.51332 14.4346 4.10799 14.2173 4.66618 13.7827C5.22437 13.3481 5.50529 12.8692 5.50529 12.3425C5.50529 12.0552 5.43962 11.8158 5.30828 11.6317C4.86684 10.9466 4.64429 10.1473 4.64429 9.22652C4.64429 8.09576 5.18424 7.20074 6.26414 6.54512C7.34404 5.8895 9.09522 5.41436 11.5177 5.12707L11.1273 7.02026C10.737 8.93923 10.3466 10.9392 9.95622 13.0166C9.56585 15.0939 9.20102 17.2228 8.86173 19.407C8.70485 20.5893 8.48231 21.9853 8.19774 23.5875C7.93871 25.1934 7.70887 26.7219 7.51551 28.1842C7.3185 29.6427 7.22364 30.6888 7.22364 31.3186C7.22364 32.0037 7.45713 32.5562 7.92776 32.9761C8.39839 33.396 9.06239 33.6059 9.91974 33.6059C10.726 33.6059 11.4155 33.4033 11.992 32.9945C12.5648 32.5856 12.8785 32.0037 12.9296 31.2376C13.0354 29.7901 13.2433 27.8932 13.5534 25.5396C13.8672 23.186 14.1664 21.116 14.4509 19.326C15.2827 14.4088 16.1693 9.55801 17.1069 4.7698C17.7308 4.74401 18.7486 4.72928 20.1532 4.72928C22.4991 4.72928 24.5275 4.7698 26.2495 4.84715C26.1437 6.18785 25.7278 8.67403 24.9982 12.302L23.5534 19.5212C22.9332 22.6262 22.6195 24.8766 22.6195 26.2689C22.6195 28.5046 23.2324 30.2873 24.4546 31.6133C25.6768 32.9429 27.3988 33.6059 29.6133 33.6059C31.0981 33.6059 32.4991 33.2265 33.8125 32.4604C35.1259 31.698 36.4502 30.4899 37.7782 28.8324C37.8183 28.7845 37.8475 28.7256 37.884 28.6703C38.1941 28.3315 38.4933 27.9963 38.7742 27.6685C39.595 26.7109 40.4743 25.4659 41.4119 23.9411C42.4517 22.2578 43.3017 19.9448 43.9511 16.9982C44.2904 17.8932 44.7647 18.5635 45.3776 19.0092C45.9905 19.4549 46.7129 19.6796 47.5447 19.6796C48.2488 19.6796 48.8325 19.5875 49.3032 19.4033C47.1142 20.9282 45.4396 22.3683 44.2831 23.7238C43.1229 25.0792 42.5429 26.6483 42.5429 28.4383C42.5429 30.2799 43.1229 31.6648 44.2831 32.6004C45.4433 33.5322 47.1288 34 49.3433 34C51.193 34 53.0427 33.547 54.8924 32.6409C56.7421 31.7348 58.278 30.4641 59.5038 28.8361C59.9964 28.1805 60.2444 27.3628 60.2444 26.3904C60.2444 25.8343 60.1459 25.3996 59.9526 25.0866Z" fill="white"/>
<path d="M75.2682 25.4805C75.4652 25.7972 75.5601 26.2282 75.5601 26.7807C75.5601 27.8341 75.312 28.6481 74.8194 29.2263C73.8563 30.4087 72.4955 31.5026 70.737 32.5007C68.9785 33.4989 67.096 33.9998 65.0931 33.9998C62.3568 33.9998 60.2335 33.2521 58.7231 31.753C57.2127 30.254 56.4575 28.2024 56.4575 25.5984C56.4575 23.7825 56.8333 22.0956 57.5921 20.5302C58.3473 18.9648 59.3944 17.7236 60.737 16.8028C62.0796 15.882 63.5936 15.4216 65.2901 15.4216C66.8005 15.4216 68.0117 15.8746 68.9238 16.7807C69.8359 17.6867 70.2919 18.917 70.2919 20.4676C70.2919 22.2834 69.6461 23.8414 68.3583 25.1416C67.0704 26.4418 64.8888 27.4768 61.8132 28.2392C62.4626 29.4473 63.7031 30.0551 65.5236 30.0551C66.6947 30.0551 68.0299 29.6425 69.5294 28.8138C71.0252 27.9851 72.324 26.9022 73.4185 25.5615C73.7323 25.1932 74.0825 25.009 74.4729 25.009C74.8049 25.0053 75.0712 25.1637 75.2682 25.4805ZM59.7775 12.1287C59.3068 11.6683 59.0734 10.9538 59.0734 9.97773C59.0734 8.928 59.3543 8.10296 59.9125 7.51364C60.4707 6.92064 61.2222 6.62598 62.1598 6.62598C62.9916 6.62598 63.6447 6.85802 64.1117 7.31474C64.5786 7.77515 64.8158 8.49338 64.8158 9.46576C64.8158 10.5192 64.5349 11.3405 63.9767 11.9298C63.4148 12.5228 62.6669 12.8175 61.7293 12.8175C60.8939 12.8175 60.2445 12.5891 59.7775 12.1287ZM62.1781 20.9832C61.5141 22.114 61.1821 23.4805 61.1821 25.0864V25.1637C62.718 24.7954 63.9293 24.2429 64.8158 23.5063C65.7023 22.7696 66.1438 21.9151 66.1438 20.9427C66.1438 20.4418 66.0088 20.044 65.7352 19.7383C65.4615 19.4363 65.0894 19.2853 64.6224 19.2853C63.6556 19.289 62.8421 19.8525 62.1781 20.9832ZM67.9023 12.1287C67.4353 11.6683 67.1981 10.9538 67.1981 9.97773C67.1981 8.928 67.4791 8.10296 68.0372 7.51364C68.5954 6.92064 69.347 6.62598 70.2846 6.62598C71.1164 6.62598 71.7695 6.85802 72.2364 7.31474C72.7071 7.77515 72.9406 8.49338 72.9406 9.46576C72.9406 10.5192 72.6596 11.3405 72.1015 11.9298C71.5396 12.5228 70.7917 12.8175 69.8541 12.8175C69.0223 12.8175 68.3729 12.5891 67.9023 12.1287Z" fill="white"/>
<path d="M96.2458 25.4806C96.4392 25.7974 96.5377 26.2283 96.5377 26.7808C96.5377 27.8342 96.2896 28.6482 95.7971 29.2265C94.9361 30.2504 94.1882 31.0755 93.5497 31.6906C92.9113 32.3093 92.1305 32.8471 91.2038 33.3075C90.2808 33.7679 89.2301 33.9963 88.059 33.9963C86.5231 33.9963 85.4286 33.3848 84.7755 32.162C84.1261 30.9392 83.7978 29.0939 83.7978 26.6187C83.7978 25.3848 83.8489 24.1878 83.9547 23.0276H83.878C82.8346 26.5266 81.5541 29.2191 80.0291 31.1123C78.5041 33.0055 76.7675 33.9521 74.812 33.9521C73.484 33.9521 72.4406 33.4659 71.6854 32.4935C70.9302 31.5211 70.5508 30.2983 70.5508 28.825C70.5508 27.5101 70.8499 26.4456 71.4483 25.6316C72.0466 24.8176 72.893 24.4088 73.9875 24.4088C74.4837 24.4088 74.8521 24.5156 75.1002 24.7255C75.3483 24.9355 75.4468 25.2265 75.3921 25.5948C75.1841 26.8581 75.0783 27.7237 75.0783 28.1988C75.0783 29.1454 75.3118 29.6206 75.7825 29.6206C76.0415 29.6206 76.337 29.4217 76.6617 29.0276C76.9864 28.6335 77.5409 27.6721 78.3217 26.1473C78.92 24.9907 79.5402 23.6906 80.1787 22.243C80.8171 20.7992 81.3425 19.5101 81.762 18.3793C82.1779 17.2743 82.6595 16.5193 83.2068 16.1104C83.754 15.7016 84.5347 15.499 85.5526 15.499C86.5413 15.499 87.271 15.6979 87.7416 16.092C88.2086 16.4861 88.4457 17.1307 88.4457 18.0257L88.3691 20.9429C88.2633 23.1528 88.2122 24.744 88.2122 25.7163C88.2122 28.4788 88.7704 29.8563 89.8905 29.8563C90.3611 29.8563 90.8208 29.6316 91.2768 29.1859C91.7329 28.7403 92.4406 27.9226 93.4074 26.7403L94.3852 25.558C94.6989 25.1896 95.0492 25.0055 95.4395 25.0055C95.7825 25.0055 96.0524 25.1638 96.2458 25.4806Z" fill="white"/>
<path d="M94.528 32.4235C94.123 31.3738 93.9224 29.6905 93.9224 27.3738C93.9224 23.9557 94.4039 20.7071 95.3671 17.6316C95.6006 16.8692 95.9837 16.3093 96.52 15.9557C97.0526 15.6021 97.8042 15.4217 98.7673 15.4217C99.289 15.4217 99.6539 15.488 99.8618 15.6205C100.07 15.7531 100.176 16.0036 100.176 16.3682C100.176 16.7881 99.9822 17.7347 99.5882 19.208C99.5371 19.3922 99.424 19.8121 99.2562 20.4714C99.0847 21.1307 98.9315 21.8968 98.7892 22.7771C98.6469 23.6574 98.5484 24.6261 98.4973 25.6758C99.435 21.9962 100.621 19.3664 102.054 17.7863C103.488 16.2099 105.218 15.418 107.25 15.418C108.603 15.418 109.665 15.8452 110.435 16.6997C111.201 17.5542 111.587 18.6519 111.587 19.9926C111.587 21.0975 111.347 22.0294 110.865 22.7918C110.384 23.5542 109.752 23.9373 108.972 23.9373C108.475 23.9373 108.078 23.8194 107.779 23.5837C107.479 23.348 107.33 23.0202 107.33 22.5966C107.33 22.4124 107.355 22.2025 107.407 21.9668C107.458 21.731 107.498 21.5579 107.523 21.4548C107.655 21.0607 107.72 20.6924 107.72 20.3498C107.72 19.639 107.381 19.2854 106.706 19.2854C106.184 19.2854 105.677 19.5542 105.181 20.092C104.685 20.6298 104.287 21.3554 103.988 22.2614C103.689 23.1675 103.539 24.1473 103.539 25.2007C103.539 26.6187 103.864 27.7568 104.517 28.6113C105.166 29.4659 106.104 29.8931 107.33 29.8931C108.293 29.8931 109.154 29.5727 109.909 28.9281C110.664 28.2835 111.708 27.1601 113.036 25.5542C113.35 25.1859 113.7 25.0018 114.09 25.0018C114.429 25.0018 114.696 25.1601 114.893 25.4769C115.09 25.7937 115.185 26.2246 115.185 26.7771C115.185 27.8305 114.937 28.6445 114.444 29.2228C113.273 30.6445 112.098 31.7937 110.927 32.674C109.756 33.5542 108.428 33.9962 106.943 33.9962C105.717 33.9962 104.605 33.7274 103.601 33.1859C102.598 32.6482 101.784 31.9962 101.161 31.2338C100.537 30.4714 100.132 29.7347 99.9494 29.0239C99.8983 29.2338 99.7013 29.9705 99.362 31.2338C99.0738 32.2872 98.7418 33.0091 98.366 33.4032C97.9866 33.7973 97.4101 33.9962 96.6258 33.9962C95.6261 33.9999 94.9329 33.4732 94.528 32.4235Z" fill="white"/>
<path d="M172.711 25.4808C172.908 25.7975 173.003 26.2285 173.003 26.7809C173.003 27.8344 172.754 28.6484 172.258 29.2266C171.062 30.6189 169.828 31.7644 168.566 32.6594C167.304 33.5544 165.863 34.0001 164.25 34.0001C162.999 34.0001 162.076 33.5065 161.478 32.5194C160.879 31.5323 160.591 30.1732 160.617 28.4384C160.175 30.2285 159.511 31.6023 158.625 32.56C157.738 33.5213 156.789 34.0001 155.772 34.0001C153.4 34.0001 152.214 32.5784 152.214 29.7386C152.214 29.2377 152.255 28.7147 152.331 28.1622C151.55 30.0554 150.715 31.5029 149.832 32.501C148.946 33.4992 147.917 34.0001 146.746 34.0001C145.575 34.0001 144.615 33.455 143.874 32.3647C143.134 31.2745 142.762 29.9117 142.762 28.2837C142.762 26.3132 142.893 24.5047 143.152 22.862C143.411 21.2193 143.842 19.4771 144.44 17.6355C144.699 16.8472 145.064 16.28 145.534 15.9412C146.001 15.5986 146.746 15.4292 147.76 15.4292C148.333 15.4292 148.73 15.5213 148.953 15.7054C149.175 15.8896 149.285 16.1658 149.285 16.5342C149.285 16.7441 149.143 17.455 148.854 18.6631C148.595 19.6355 148.384 20.5158 148.231 21.3077C147.709 24.0701 147.45 25.908 147.45 26.8288C147.45 27.3813 147.515 27.7681 147.647 27.9927C147.778 28.2174 147.986 28.3279 148.271 28.3279C149.132 28.3279 149.971 27.3482 150.792 25.3887C151.613 23.4292 152.503 20.8472 153.469 17.6391C153.703 16.8509 153.977 16.3169 154.29 16.0406C154.604 15.7644 155.177 15.6281 156.009 15.6281C156.687 15.6281 157.154 15.7386 157.417 15.9633C157.676 16.1879 157.807 16.5747 157.807 17.1272C157.807 17.6539 157.625 18.9283 157.26 20.9541C156.738 24.0038 156.479 25.9633 156.479 26.8325C156.479 27.385 156.545 27.7717 156.676 27.9964C156.808 28.2211 157.016 28.3316 157.3 28.3316C157.691 28.3316 158.179 27.9375 158.767 27.1493C159.354 26.3611 159.978 25.164 160.642 23.5581C161.306 21.9559 161.952 19.9817 162.576 17.6428C162.784 16.8546 163.105 16.2874 163.532 15.9485C163.962 15.606 164.604 15.4366 165.465 15.4366C166.063 15.4366 166.479 15.5102 166.716 15.6539C166.95 15.7975 167.067 16.0664 167.067 16.4642C167.067 17.1235 166.742 18.9246 166.089 21.8675C165.359 25.234 164.994 27.3113 164.994 28.0996C164.994 28.6005 165.097 28.9872 165.308 29.2635C165.516 29.5397 165.79 29.676 166.129 29.676C166.651 29.676 167.267 29.3555 167.986 28.711C168.701 28.0664 169.661 27.0204 170.857 25.5765C171.171 25.2082 171.521 25.024 171.912 25.024C172.247 25.0056 172.514 25.164 172.711 25.4808Z" fill="white"/>
<path d="M190.543 22.2064C190.726 22.549 190.817 22.9836 190.817 23.5066C190.817 24.77 190.438 25.5177 189.682 25.7534C188.121 26.3059 186.399 26.6226 184.524 26.7C184.028 28.9099 183.053 30.6779 181.594 32.0039C180.135 33.3335 178.482 33.9965 176.632 33.9965C175.071 33.9965 173.736 33.6171 172.627 32.851C171.521 32.0886 170.678 31.0757 170.106 29.8123C169.533 28.549 169.245 27.1825 169.245 25.7092C169.245 23.7129 169.62 21.9302 170.379 20.3648C171.134 18.7994 172.178 17.5766 173.506 16.6963C174.834 15.816 176.304 15.374 177.92 15.374C179.898 15.374 181.496 16.0628 182.707 17.444C183.918 18.8252 184.626 20.5269 184.837 22.5527C186.063 22.4753 187.519 22.2101 189.212 21.7644C189.42 21.7129 189.602 21.6871 189.759 21.6871C190.102 21.6945 190.361 21.8639 190.543 22.2064ZM179.117 28.7921C179.73 28.107 180.138 27.1236 180.346 25.8344C179.54 25.2819 178.92 24.56 178.489 23.665C178.059 22.77 177.844 21.8234 177.844 20.8252C177.844 20.4053 177.884 19.9854 177.96 19.5619H177.767C176.724 19.5619 175.859 20.0702 175.169 21.0794C174.48 22.0923 174.133 23.5177 174.133 25.3593C174.133 26.8068 174.414 27.9118 174.972 28.6742C175.531 29.4366 176.191 29.8197 176.946 29.8197C177.782 29.8197 178.504 29.4771 179.117 28.7921Z" fill="white"/>
<path d="M188.143 32.4232C187.738 31.3735 187.538 29.6903 187.538 27.3735C187.538 23.9555 188.019 20.7068 188.982 17.6313C189.216 16.8689 189.599 16.309 190.135 15.9555C190.668 15.6019 191.419 15.4214 192.383 15.4214C192.904 15.4214 193.269 15.4877 193.477 15.6203C193.685 15.7529 193.791 16.0033 193.791 16.368C193.791 16.7879 193.597 17.7345 193.203 19.2078C192.944 20.2612 192.736 21.1783 192.58 21.9702C192.423 22.7621 192.291 23.7308 192.189 24.8873C193.05 22.6258 194.013 20.7842 195.079 19.3661C196.148 17.9444 197.195 16.9352 198.223 16.3275C199.252 15.7234 200.197 15.4214 201.055 15.4214C202.747 15.4214 203.594 16.2759 203.594 17.9849C203.594 19.0089 203.306 20.8652 202.733 23.5466C202.237 25.8339 201.992 27.3477 201.992 28.0844C201.992 29.1378 202.368 29.6608 203.127 29.6608C203.649 29.6608 204.265 29.3404 204.984 28.6958C205.699 28.0512 206.658 27.0052 207.855 25.5614C208.169 25.193 208.519 25.0089 208.909 25.0089C209.249 25.0089 209.515 25.1672 209.708 25.484C209.905 25.8008 210 26.2317 210 26.7842C210 27.8376 209.752 28.6516 209.256 29.2299C208.136 30.6221 206.932 31.7676 205.64 32.6626C204.353 33.5577 202.886 34.0033 201.244 34.0033C199.916 34.0033 198.913 33.6166 198.234 32.8394C197.556 32.0623 197.22 30.9389 197.22 29.4656C197.22 28.7289 197.403 27.414 197.767 25.5208C198.107 23.8634 198.275 22.7216 198.275 22.0881C198.275 21.6682 198.132 21.4582 197.844 21.4582C197.505 21.4582 197.03 21.9002 196.418 22.7805C195.805 23.6608 195.181 24.8247 194.542 26.2722C193.904 27.7197 193.389 29.2446 192.999 30.8468C192.711 32.0844 192.379 32.9168 192.003 33.3514C191.624 33.786 191.033 34.0033 190.226 34.0033C189.241 33.9997 188.545 33.473 188.143 32.4232Z" fill="white"/>
<path d="M131.96 14.3394C129.081 13.9858 126.903 15.9968 125.4 17.2933C123.404 19.0171 121.474 23.1865 122.102 26.1884C122.591 28.5346 124.608 30.693 126.925 31.227C130.004 31.9379 132.35 30.763 133.631 29.96C134.601 29.3523 137.819 26.7666 137.804 24.5014C137.731 13.286 135.823 14.8145 131.96 14.3394ZM134.28 19.448C133.43 19.448 132.74 18.5567 132.74 17.4591C132.74 16.3615 133.43 15.4701 134.28 15.4701C135.13 15.4701 135.82 16.3615 135.82 17.4591C135.82 18.5567 135.13 19.448 134.28 19.448Z" fill="white"/>
<path d="M128.311 11.1788C128.647 8.88415 127.137 6.01122 124.55 5.90809C121.54 5.78655 120.402 9.62448 121.069 11.374C122.011 13.8344 124.338 16.5674 124.827 16.4164C125.586 16.1807 128.019 13.1751 128.311 11.1788Z" fill="white"/>
<path d="M121.15 14.2616C119.694 13.9558 117.706 14.3721 117.636 16.5157C117.563 18.8803 120.154 19.1161 121 18.9872C122.208 18.803 123.408 17.8269 124.221 16.8951C124.305 16.7993 124.298 16.6557 124.211 16.5599C123.733 16.0442 122.204 14.4826 121.15 14.2616Z" fill="white"/>
<path d="M125.67 29.6099C123.587 28.1771 122.401 25.9672 122.105 23.9893C122.069 24.1292 122.025 24.2655 121.989 24.4055C121.598 25.9819 121.54 29.3926 122.153 29.9745C122.587 30.3871 125.713 31.4257 127.629 31.481C128.096 31.4957 128.493 31.481 128.869 31.4478C127.873 31.0169 126.99 30.5196 125.67 29.6099Z" fill="white"/>
<path d="M129.676 25.7276C126.947 23.2745 126.44 22.2801 125.951 19.5803C125.743 18.4421 125.955 17.4035 126.082 16.6558C125.272 17.3629 124.579 18.1143 124.01 18.9136C123.904 19.525 122.916 22.3427 125.604 25.7791C128.348 29.2893 131.566 30.1364 132.751 30.4863C133.302 30.188 133.835 29.8454 134.349 29.4366C134.718 29.1456 135.064 28.8436 135.389 28.5379C134.389 28.3353 131.825 27.6613 129.676 25.7276Z" fill="white"/>
<path d="M138.993 20.6486C138.931 19.1237 138.428 17.7499 137.483 16.5344C136.571 15.3595 135.484 14.5934 134.221 14.2398C132.959 13.8862 131.668 13.8935 130.351 14.2619C129.69 14.446 129.055 14.6965 128.443 15.0132C128.3 16.0261 128.038 19.2858 130.07 21.6541C132.16 24.0924 136.082 26.0372 137.242 26.3687C137.487 26.004 137.706 25.632 137.903 25.2527C138.691 23.7094 139.055 22.1735 138.993 20.6486ZM134.962 17.8457C134.659 18.0188 134.298 17.8567 134.017 17.6504C133.616 17.3595 133.266 17.5584 134.342 16.7333C134.506 16.6081 135.031 16.667 135.203 16.9764C135.374 17.2821 135.269 17.6725 134.962 17.8457Z" fill="white"/>
<path d="M139.653 33.8714C139.653 33.8714 137.829 32.1292 138.895 28.1771C139.398 26.3097 141.251 24.8364 141.251 24.8364C141.251 24.8364 139.219 25.3337 137.745 27.3005C136.005 29.621 135.717 31.4036 135.626 31.9156C135.535 32.4276 134.976 32.1145 135.425 30.8438C135.615 30.3024 135.772 29.9082 135.772 29.9082C135.772 29.9082 134.462 30.6081 133.969 31.5031C133.408 32.5233 133.342 32.8659 133.342 33.1937C133.342 33.5215 133.371 32.6117 132.824 31.9745C132.525 31.6246 131.788 31.4515 131.788 31.4515C131.788 31.4515 132.291 31.9893 132.306 32.4828C132.335 33.5252 131.729 33.6578 131.729 33.6578C131.729 33.6578 131.189 33.8567 131.014 33.1606C130.781 32.2287 129.478 32.4276 129.478 32.4276C129.478 32.4276 129.975 32.6154 129.88 33.3152C129.788 34.0151 128.924 33.8162 128.924 33.8162L137.767 33.8677H139.653V33.8714Z" fill="white"/>
<path d="M118.22 33.8714C118.22 33.8714 120.044 32.1292 118.978 28.1771C118.475 26.3097 116.622 24.8364 116.622 24.8364C116.622 24.8364 118.654 25.3337 120.128 27.3005C121.868 29.621 122.156 31.4036 122.247 31.9156C122.338 32.4276 122.897 32.1145 122.448 30.8438C122.258 30.3024 122.101 29.9083 122.101 29.9083C122.101 29.9083 123.411 30.6081 123.904 31.5031C124.465 32.5234 124.531 32.8659 124.531 33.1937C124.531 33.5215 124.502 32.6118 125.049 31.9746C125.348 31.6246 126.085 31.4515 126.085 31.4515C126.085 31.4515 125.582 31.9893 125.567 32.4828C125.538 33.5252 126.144 33.6578 126.144 33.6578C126.144 33.6578 126.684 33.8567 126.859 33.1606C127.092 32.2287 128.395 32.4276 128.395 32.4276C128.395 32.4276 127.899 32.6154 127.993 33.3153C128.085 34.0151 128.949 33.8162 128.949 33.8162L120.106 33.8677H118.22V33.8714Z" fill="white"/>
</g>
<defs>
<clipPath id="clip0">
<rect width="210" height="34" fill="white"/>
</clipPath>
</defs>
</svg>
