<svg width="46" height="46" viewBox="0 0 46 46" fill="none" xmlns="http://www.w3.org/2000/svg">
<g filter="url(#filter0_d)">
<rect x="4.28564" y="0.857422" width="37.1428" height="37.1428" rx="12" fill="#90C1BF"/>
</g>
<path fill-rule="evenodd" clip-rule="evenodd" d="M32.4742 9.2957C31.2222 7.97546 29.7326 6.92861 28.0917 6.2158C26.4507 5.50298 24.6911 5.13838 22.9147 5.14311C15.4659 5.14311 9.40205 11.4942 9.39904 19.301C9.39904 21.7961 10.0208 24.2312 11.2025 26.3792L9.28613 33.7145L16.4504 31.7446C18.4322 32.8748 20.6524 33.4674 22.9087 33.4684H22.9147C30.3621 33.4684 36.4259 27.1173 36.4289 19.3105C36.434 17.4502 36.0872 15.6074 35.4083 13.8884C34.7295 12.1694 33.7323 10.6085 32.4742 9.2957ZM22.9147 31.0791H22.9102C20.8982 31.0793 18.9233 30.5122 17.1926 29.4373L16.7831 29.1818L12.5318 30.3504L13.6654 26.0086L13.3989 25.5638C12.2741 23.6877 11.6786 21.5166 11.6813 19.301C11.6843 12.8127 16.7229 7.53405 22.9192 7.53405C24.3949 7.53061 25.8566 7.83383 27.2197 8.42615C28.5828 9.01848 29.8202 9.88814 30.8603 10.9848C31.906 12.0763 32.7349 13.374 33.299 14.8031C33.863 16.2321 34.1512 17.7641 34.1467 19.3105C34.1437 25.7988 29.105 31.0791 22.9147 31.0791ZM29.0764 22.2645C28.7377 22.0863 27.0787 21.2315 26.7686 21.1132C26.46 20.9949 26.2357 20.9365 26.0099 21.2898C25.7841 21.6431 25.1367 22.4395 24.9395 22.6761C24.7423 22.9127 24.5451 22.9411 24.2079 22.7644C23.8707 22.5878 22.7822 22.214 21.4921 21.0091C20.488 20.0707 19.8105 18.9131 19.6133 18.5582C19.4161 18.2034 19.5923 18.0125 19.7624 17.8359C19.9144 17.6782 20.0996 17.4227 20.2682 17.2161C20.4368 17.0095 20.4925 16.8628 20.6054 16.6262C20.7183 16.3897 20.6626 16.183 20.5768 16.0064C20.4925 15.8282 19.8166 14.087 19.5351 13.3789C19.2626 12.6929 18.9841 12.7843 18.7763 12.7749C18.5612 12.7656 18.3458 12.7614 18.1305 12.7622C17.9593 12.7668 17.7908 12.8084 17.6356 12.8844C17.4804 12.9604 17.3419 13.0691 17.2287 13.2038C16.9186 13.5587 16.047 14.4135 16.047 16.1547C16.047 17.8958 17.2573 19.5786 17.426 19.8152C17.5946 20.0518 19.8075 23.624 23.1947 25.1569C24.0016 25.5213 24.6309 25.7389 25.1202 25.9029C25.9286 26.1726 26.6647 26.1332 27.2473 26.0433C27.8962 25.9424 29.245 25.1885 29.5265 24.3621C29.8081 23.5356 29.8081 22.8275 29.7238 22.6793C29.6394 22.531 29.4121 22.4411 29.0764 22.2645Z" fill="white"/>
<defs>
<filter id="filter0_d" x="0.285645" y="0.857422" width="45.1428" height="45.1428" filterUnits="userSpaceOnUse" color-interpolation-filters="sRGB">
<feFlood flood-opacity="0" result="BackgroundImageFix"/>
<feColorMatrix in="SourceAlpha" type="matrix" values="0 0 0 0 0 0 0 0 0 0 0 0 0 0 0 0 0 0 127 0"/>
<feOffset dy="4"/>
<feGaussianBlur stdDeviation="2"/>
<feColorMatrix type="matrix" values="0 0 0 0 0 0 0 0 0 0 0 0 0 0 0 0 0 0 0.17 0"/>
<feBlend mode="normal" in2="BackgroundImageFix" result="effect1_dropShadow"/>
<feBlend mode="normal" in="SourceGraphic" in2="effect1_dropShadow" result="shape"/>
</filter>
</defs>
</svg>
