<svg width="23" height="22" viewBox="0 0 23 22" fill="none" xmlns="http://www.w3.org/2000/svg">
<path d="M22.1584 20.1453L18.0798 16.0966C19.663 14.1212 20.4297 11.6137 20.2222 9.08992C20.0148 6.56611 18.849 4.21775 16.9645 2.52772C15.0801 0.837685 12.6202 -0.0655592 10.0908 0.00370867C7.5613 0.0729766 5.15448 1.10949 3.36521 2.90013C1.57593 4.69076 0.540206 7.0994 0.470991 9.6308C0.401776 12.1622 1.30433 14.6239 2.99308 16.5098C4.68183 18.3957 7.02841 19.5623 9.5503 19.7699C12.0722 19.9775 14.5777 19.2103 16.5517 17.6259L20.5973 21.6746C20.6995 21.7777 20.8211 21.8595 20.9551 21.9154C21.089 21.9712 21.2327 22 21.3778 22C21.523 22 21.6667 21.9712 21.8006 21.9154C21.9346 21.8595 22.0562 21.7777 22.1584 21.6746C22.3565 21.4694 22.4673 21.1953 22.4673 20.9099C22.4673 20.6246 22.3565 20.3505 22.1584 20.1453ZM10.3844 17.6259C8.86237 17.6259 7.37454 17.1742 6.10903 16.328C4.84352 15.4818 3.85718 14.279 3.27473 12.8718C2.69229 11.4646 2.53989 9.91609 2.83682 8.42219C3.13375 6.92829 3.86667 5.55605 4.94289 4.47901C6.01912 3.40197 7.39031 2.66849 8.88308 2.37134C10.3758 2.07418 11.9231 2.22669 13.3293 2.80958C14.7354 3.39247 15.9373 4.37956 16.7829 5.64603C17.6285 6.9125 18.0798 8.40146 18.0798 9.92463C18.0798 11.9671 17.269 13.926 15.8259 15.3703C14.3827 16.8145 12.4253 17.6259 10.3844 17.6259Z" fill="#A5AAAF"/>
</svg>
