<svg width="66" height="68" viewBox="0 0 66 68" fill="none" xmlns="http://www.w3.org/2000/svg">
<rect width="66" height="66" rx="12" fill="white"/>
<path d="M24.7497 53.4109C23.9883 53.4109 23.2439 53.6582 22.6108 54.1215C21.9777 54.5849 21.4842 55.2434 21.1928 56.0139C20.9014 56.7844 20.8252 57.6322 20.9737 58.4502C21.1223 59.2681 21.4889 60.0195 22.0274 60.6092C22.5658 61.1989 23.2518 61.6005 23.9986 61.7632C24.7455 61.9259 25.5196 61.8424 26.2231 61.5232C26.9266 61.2041 27.5279 60.6636 27.9509 59.9702C28.3739 59.2768 28.5997 58.4615 28.5997 57.6276C28.5997 56.5092 28.1941 55.4367 27.4721 54.6459C26.7501 53.8551 25.7708 53.4109 24.7497 53.4109ZM51.6997 44.9776H20.8997C20.219 44.9776 19.5662 44.6814 19.0848 44.1542C18.6035 43.627 18.3331 42.912 18.3331 42.1664C18.3331 41.4209 18.6035 40.7059 19.0848 40.1787C19.5662 39.6515 20.219 39.3553 20.8997 39.3553H42.6933C44.3655 39.3496 45.9909 38.7504 47.3259 37.6476C48.6609 36.5448 49.6336 34.9977 50.0981 33.2384L54.1663 17.6367C54.2751 17.2186 54.2938 16.7785 54.221 16.3511C54.1483 15.9237 53.986 15.5207 53.7469 15.1736C53.5079 14.8265 53.1986 14.5449 52.8434 14.3508C52.4882 14.1568 52.0967 14.0556 51.6997 14.0553H20.2324C19.7006 12.4165 18.7202 10.9972 17.4249 9.99105C16.1296 8.9849 14.5824 8.44085 12.9944 8.43311H10.6331C9.95235 8.43311 9.29951 8.72928 8.81817 9.25646C8.33682 9.78365 8.06641 10.4987 8.06641 11.2442C8.06641 11.9898 8.33682 12.7048 8.81817 13.232C9.29951 13.7592 9.95235 14.0553 10.6331 14.0553H12.997C13.5543 14.0573 14.0961 14.2569 14.5412 14.6243C14.9863 14.9917 15.3108 15.5071 15.4661 16.0934L15.8639 17.6254V17.6395L20.0758 33.7809C18.1153 34.0105 16.3099 35.055 15.0317 36.6991C13.7535 38.3433 13.0998 40.4619 13.2054 42.6183C13.3111 44.7746 14.1679 46.8044 15.5995 48.2894C17.031 49.7743 18.9281 50.6013 20.8997 50.5998H51.6997C52.3805 50.5998 53.0333 50.3036 53.5146 49.7764C53.996 49.2492 54.2664 48.5342 54.2664 47.7887C54.2664 47.0431 53.996 46.3281 53.5146 45.8009C53.0333 45.2737 52.3805 44.9776 51.6997 44.9776ZM48.2963 19.6776L45.165 31.6922C45.0101 32.2795 44.6854 32.7959 44.2397 33.1639C43.7941 33.5318 43.2514 33.7316 42.6933 33.7331H25.4017L24.7472 31.2256L21.7365 19.6776H48.2963ZM45.2831 53.4109C44.5216 53.4109 43.7773 53.6582 43.1441 54.1215C42.511 54.5849 42.0175 55.2434 41.7261 56.0139C41.4347 56.7844 41.3585 57.6322 41.507 58.4502C41.6556 59.2681 42.0223 60.0195 42.5607 60.6092C43.0991 61.1989 43.7851 61.6005 44.532 61.7632C45.2788 61.9259 46.0529 61.8424 46.7564 61.5232C47.4599 61.2041 48.0612 60.6636 48.4842 59.9702C48.9073 59.2768 49.1331 58.4615 49.1331 57.6276C49.1331 56.5092 48.7274 55.4367 48.0054 54.6459C47.2834 53.8551 46.3042 53.4109 45.2831 53.4109Z" fill="#F2B236"/>
<circle cx="49.8663" cy="16.1334" r="10.2667" fill="#DB4E66"/>
</svg>
