<svg width="40" height="41" viewBox="0 0 40 41" fill="none" xmlns="http://www.w3.org/2000/svg">
<rect width="40" height="40" rx="8" fill="white"/>
<path d="M14.9999 32.3706C14.5384 32.3706 14.0873 32.5205 13.7036 32.8013C13.3199 33.0821 13.0208 33.4812 12.8442 33.9482C12.6676 34.4151 12.6214 34.929 12.7114 35.4247C12.8014 35.9204 13.0237 36.3758 13.35 36.7332C13.6763 37.0906 14.0921 37.334 14.5447 37.4326C14.9973 37.5312 15.4665 37.4806 15.8928 37.2872C16.3192 37.0937 16.6836 36.7662 16.94 36.3459C17.1964 35.9257 17.3332 35.4316 17.3332 34.9261C17.3332 34.2484 17.0874 33.5984 16.6498 33.1191C16.2122 32.6398 15.6187 32.3706 14.9999 32.3706ZM31.3332 27.2595H12.6666C12.254 27.2595 11.8584 27.08 11.5666 26.7605C11.2749 26.441 11.111 26.0076 11.111 25.5558C11.111 25.1039 11.2749 24.6706 11.5666 24.3511C11.8584 24.0316 12.254 23.8521 12.6666 23.8521H25.8748C26.8882 23.8486 27.8733 23.4855 28.6824 22.8171C29.4915 22.1487 30.081 21.2111 30.3626 20.1448L32.8281 10.6893C32.894 10.4359 32.9054 10.1692 32.8613 9.91013C32.8172 9.65111 32.7188 9.40682 32.574 9.19646C32.4291 8.98611 32.2416 8.81543 32.0264 8.69783C31.8111 8.58023 31.5738 8.51893 31.3332 8.51874H12.2621C11.9398 7.5255 11.3456 6.66533 10.5606 6.05554C9.77556 5.44575 8.83788 5.11602 7.87546 5.11133H6.44435C6.03179 5.11133 5.63613 5.29082 5.34441 5.61033C5.05268 5.92984 4.88879 6.36318 4.88879 6.81503C4.88879 7.26688 5.05268 7.70023 5.34441 8.01973C5.63613 8.33924 6.03179 8.51874 6.44435 8.51874H7.87702C8.21481 8.51992 8.54317 8.6409 8.81293 8.86356C9.08269 9.08623 9.27935 9.3986 9.37346 9.75392L9.61457 10.6824V10.691L12.1672 20.4736C10.9791 20.6128 9.88487 21.2458 9.11018 22.2423C8.3355 23.2387 7.93934 24.5227 8.00336 25.8296C8.06738 27.1365 8.5867 28.3667 9.45428 29.2667C10.3219 30.1666 11.4716 30.6678 12.6666 30.6669H31.3332C31.7458 30.6669 32.1415 30.4874 32.4332 30.1679C32.7249 29.8484 32.8888 29.415 32.8888 28.9632C32.8888 28.5113 32.7249 28.078 32.4332 27.7585C32.1415 27.439 31.7458 27.2595 31.3332 27.2595ZM29.2706 11.9261L27.3728 19.2078C27.2789 19.5637 27.0821 19.8766 26.812 20.0997C26.5419 20.3227 26.2131 20.4437 25.8748 20.4447H15.395L14.9983 18.925L13.1737 11.9261H29.2706ZM27.4443 32.3706C26.9829 32.3706 26.5317 32.5205 26.148 32.8013C25.7643 33.0821 25.4652 33.4812 25.2886 33.9482C25.112 34.4151 25.0658 34.929 25.1558 35.4247C25.2459 35.9204 25.4681 36.3758 25.7944 36.7332C26.1208 37.0906 26.5365 37.334 26.9891 37.4326C27.4418 37.5312 27.9109 37.4806 28.3373 37.2872C28.7636 37.0937 29.1281 36.7662 29.3844 36.3459C29.6408 35.9257 29.7777 35.4316 29.7777 34.9261C29.7777 34.2484 29.5318 33.5984 29.0943 33.1191C28.6567 32.6398 28.0632 32.3706 27.4443 32.3706Z" fill="#F2B236"/>
<ellipse cx="30.2221" cy="9.77789" rx="6.22222" ry="6.22222" fill="#DB4E66"/>
</svg>
